<svg xmlns="http://www.w3.org/2000/svg" viewBox="0 0 1600 620" preserveAspectRatio="xMidYMid slice">
  <defs>
    <linearGradient id="base" x1="0" y1="0" x2="1" y2="1">
      <stop offset="0" stop-color="#ffffff"/>
      <stop offset="0.42" stop-color="#f7fbfb"/>
      <stop offset="0.72" stop-color="#e4f2f5"/>
      <stop offset="1" stop-color="#bfe3ee"/>
    </linearGradient>
    <linearGradient id="flowBlue" x1="0" y1="0" x2="1" y2="1">
      <stop offset="0" stop-color="#ddeff8" stop-opacity="0"/>
      <stop offset="0.55" stop-color="#c9e7f1" stop-opacity="0.58"/>
      <stop offset="1" stop-color="#4f8e9e" stop-opacity="0.28"/>
    </linearGradient>
    <linearGradient id="flowTeal" x1="0" y1="0" x2="1" y2="0">
      <stop offset="0" stop-color="#a8e1dd" stop-opacity="0"/>
      <stop offset="0.58" stop-color="#a8e1dd" stop-opacity="0.45"/>
      <stop offset="1" stop-color="#4f8e9e" stop-opacity="0.34"/>
    </linearGradient>
    <filter id="soften">
      <feGaussianBlur stdDeviation="0.55"/>
    </filter>
  </defs>
  <rect width="1600" height="620" fill="url(#base)"/>
  <path d="M770 -35c132 110 276 104 426 90 152-14 281 18 404 128v437H0V530c160-45 294-50 414-28 151 28 258-30 352-140 124-146 252-168 402-91 119 61 256 72 432 15v334H0V0h770z" fill="#dcebf5" opacity="0.42"/>
  <path d="M620 480c186-164 359-185 521-73 123 85 267 94 459 10v203H0v-62c183-72 319-79 470-28 55 19 102 1 150-50z" fill="url(#flowBlue)" filter="url(#soften)"/>
  <path d="M700 410c170-136 317-145 460-38 120 90 264 100 440 34v214H0v-42c175-49 316-54 460-2 87 32 159-30 240-166z" fill="url(#flowTeal)" opacity="0.86"/>
  <path d="M705 300c135 102 282 119 444 56 144-56 281-54 451 16v248H0v-18c169-45 323-53 465-30 158 25 238-41 356-175 36-41 72-72 108-97z" fill="#eae6f7" opacity="0.28"/>
  <path d="M610 470c220-150 397-156 548-34 129 104 278 122 442 52" fill="none" stroke="#fff" stroke-opacity="0.62" stroke-width="1.3"/>
  <path d="M690 398c197-124 361-125 502-10 110 90 242 110 408 52" fill="none" stroke="#fff" stroke-opacity="0.55" stroke-width="1.2"/>
  <path d="M620 330c183-80 345-60 486 61 112 96 269 109 494 29" fill="none" stroke="#fff" stroke-opacity="0.42" stroke-width="1"/>
  <path d="M745 212c160 50 310 70 455 9 119-50 251-41 400 28" fill="none" stroke="#ffffff" stroke-opacity="0.38" stroke-width="1"/>
  <path d="M840 134c36 122 177 190 421 205" fill="none" stroke="#ffffff" stroke-opacity="0.24" stroke-width="1"/>
  <circle cx="711" cy="182" r="10" fill="#7fcfc9" opacity="0.58"/>
  <circle cx="982" cy="262" r="7" fill="#f5d98a" opacity="0.78"/>
  <circle cx="1077" cy="336" r="8" fill="#b6abdc" opacity="0.64"/>
  <circle cx="1251" cy="292" r="7" fill="#ff8270" opacity="0.74"/>
  <circle cx="1396" cy="438" r="7" fill="#dff4e3" opacity="0.82"/>
  <circle cx="1488" cy="258" r="5" fill="#ffffff" opacity="0.86"/>
</svg>
